<svg xmlns="http://www.w3.org/2000/svg" width="77.825" height="80" viewBox="0 0 77.825 80">
  <g id="_8333830_email_marketing_envelope_letter_icon" data-name="8333830_email_marketing_envelope_letter_icon" transform="translate(-7 0.02)">
    <path id="Path_5178" data-name="Path 5178" d="M87.468,38.686c-1.453,1.162-37.55,30.049-38.284,30.638.469.366-6.248-5.013-38.284-30.638.062-.064,36.722-34.155,36.644-34.092a2.409,2.409,0,0,1,3.28,0C50.215,4.022,60.227,13.348,87.468,38.686Z" transform="translate(-3.279 -3.338)" fill="#00d1cb"/>
    <path id="Path_5179" data-name="Path 5179" d="M109.9,47.783V77.561l-29.9,24H73.717l-29.917-24V47.783A2.46,2.46,0,0,1,46.23,45.3h61.252A2.457,2.457,0,0,1,109.9,47.783Z" transform="translate(-30.943 -38.107)" fill="#fff"/>
    <path id="Path_5181" data-name="Path 5181" d="M87.468,222.2v41.731a3.777,3.777,0,0,1-1.078,2.658,3.651,3.651,0,0,1-2.608,1.114h-69.2a3.651,3.651,0,0,1-2.608-1.114,3.749,3.749,0,0,1-1.078-2.658V222.2l24.9,19.927,13.386,10.711L62.57,242.127Z" transform="translate(-3.279 -188.344)" fill="#00d1cb"/>
    <path id="Path_5184" data-name="Path 5184" d="M61.136,310.7H48.85a3.663,3.663,0,0,0-2.623,1.114C35.924,322.4,17.878,340.94,17.8,341.02a3.648,3.648,0,0,0,2.607,1.114H89.564a3.621,3.621,0,0,0,2.607-1.114c-16.891-17.348-14.55-14.961-28.428-29.19A3.556,3.556,0,0,0,61.136,310.7Z" transform="translate(-9.081 -262.759)" fill="#00d1cb"/>
    <g id="Group_127" data-name="Group 127" transform="translate(7 -0.02)">
      <path id="Path_5187" data-name="Path 5187" d="M84.809,34.7a.648.648,0,0,0-.2-.453l-4.937-4.515V9.5a3.041,3.041,0,0,0-3.047-3.047H54.17L48.233,1.014C46.53-.548,44.92-.2,43.452,1.139l-5.8,5.3H15.187A3.041,3.041,0,0,0,12.14,9.483V29.716c-2.984,2.719-4.922,4.5-4.937,4.515a.679.679,0,0,0-.2.453V75.652a4.311,4.311,0,0,0,4.3,4.328H80.513a4.321,4.321,0,0,0,4.312-4.312V34.7ZM83.591,75.668a3.052,3.052,0,0,1-.5,1.687L60.217,54.325,83.591,35.982Zm-.344-41c-.687.547-1.937,1.531-3.578,2.812V31.4ZM44.686,1.686a1.806,1.806,0,0,1,2.453,0l.016.016c.266.234,1.906,1.734,5.2,4.75H39.467C42.592,3.577,44.655,1.7,44.686,1.686ZM13.359,9.5a1.814,1.814,0,0,1,1.812-1.812H76.622A1.814,1.814,0,0,1,78.435,9.5V38.45l-19.109,15L55.107,49.2a4.357,4.357,0,0,0-3.062-1.281h-12.3a4.341,4.341,0,0,0-3.062,1.266l-4.219,4.25-19.109-15S13.359,9.5,13.359,9.5ZM8.219,75.668v-39.7L31.593,54.309,8.734,77.355A3.066,3.066,0,0,1,8.219,75.668ZM12.14,31.4v6.078L8.562,34.669C9.219,34.06,10.484,32.9,12.14,31.4ZM11.3,78.746a3.2,3.2,0,0,1-1.7-.516L37.577,50.044a3.085,3.085,0,0,1,2.187-.906h12.3a3.113,3.113,0,0,1,2.187.906L82.216,78.23a3.308,3.308,0,0,1-1.7.516Z" transform="translate(-7 0.02)" fill="#454f63"/>
      <path id="Path_5188" data-name="Path 5188" d="M143.99,238.741a.621.621,0,0,0,0-1.241H95.3a.621.621,0,0,0,0,1.241Z" transform="translate(-80.742 -200.4)" fill="#454f63"/>
      <path id="Path_5189" data-name="Path 5189" d="M95.3,193.341H143.99a.621.621,0,0,0,0-1.241H95.3a.621.621,0,0,0,0,1.241Z" transform="translate(-80.742 -162.091)" fill="#454f63"/>
      <path id="Path_5190" data-name="Path 5190" d="M143.99,147.841a.621.621,0,0,0,0-1.241H95.3a.621.621,0,0,0,0,1.241Z" transform="translate(-80.742 -123.698)" fill="#454f63"/>
      <path id="Path_5191" data-name="Path 5191" d="M95.3,102.441H143.99a.621.621,0,0,0,0-1.241H95.3a.621.621,0,0,0,0,1.241Z" transform="translate(-80.742 -85.39)" fill="#454f63"/>
    </g>
  </g>
</svg>
