<svg width="64" height="64" viewBox="0 0 64 64" fill="none" xmlns="http://www.w3.org/2000/svg">
<mask id="mask0_994_1142" style="mask-type:luminance" maskUnits="userSpaceOnUse" x="0" y="0" width="64" height="64">
<path d="M64 0H0V64H64V0Z" fill="white"/>
</mask>
<g mask="url(#mask0_994_1142)">
<path d="M63.1159 31.9968C63.1166 38.1514 61.2923 44.168 57.8736 49.2857C54.4548 54.4034 49.5952 58.3923 43.9094 60.7481C38.2235 63.1039 31.9667 63.7206 25.9303 62.5203C19.8939 61.32 14.349 58.3566 9.99687 54.0049C5.64472 49.6532 2.68079 44.1086 1.47993 38.0723C0.279058 32.036 0.895187 25.7792 3.25039 20.0931C5.6056 14.407 9.5941 9.54698 14.7115 6.12774C19.8289 2.7085 25.8453 0.883591 31.9998 0.883789C40.2517 0.884054 48.1656 4.16201 54.0008 9.99669C59.8361 15.8314 63.1148 23.7449 63.1159 31.9968Z" fill="#00D1CB"/>
<path d="M31.9998 0.882812C38.1543 0.882813 44.1706 2.70787 49.2878 6.12718C54.405 9.54649 58.3934 14.4065 60.7485 20.0925C63.1035 25.7786 63.7196 32.0354 62.5187 38.0715C61.3178 44.1077 58.3539 49.6522 54.0018 54.0039C49.6497 58.3556 44.1049 61.319 38.0686 62.5193C32.0323 63.7196 25.7756 63.1029 20.0898 60.7473C14.4039 58.3917 9.54433 54.4029 6.12551 49.2853C2.70669 44.1678 0.882219 38.1513 0.882813 31.9968C0.883873 23.7447 4.1627 15.8309 9.99813 9.996C15.8336 4.16114 23.7477 0.883078 31.9998 0.882812Z" fill="#E11F26"/>
<path d="M31.9998 63.1168C49.1853 63.1168 63.1168 49.1853 63.1168 31.9998C63.1168 14.8144 49.1853 0.882812 31.9998 0.882812C14.8144 0.882812 0.882812 14.8144 0.882812 31.9998C0.882812 49.1853 14.8144 63.1168 31.9998 63.1168Z" stroke="#454F63" stroke-miterlimit="10"/>
<path d="M45.0369 18.7207L18.9629 45.2807" stroke="white" stroke-width="1.2" stroke-linecap="round" stroke-linejoin="round"/>
<path d="M18.9629 18.7207L45.0369 45.2807" stroke="white" stroke-width="1.2" stroke-linecap="round" stroke-linejoin="round"/>
</g>
</svg>
