<svg id="Group_128" data-name="Group 128" xmlns="http://www.w3.org/2000/svg" xmlns:xlink="http://www.w3.org/1999/xlink" width="80" height="80" viewBox="0 0 80 80">
  <defs>
    <clipPath id="clip-path">
      <rect id="Rectangle_1015" data-name="Rectangle 1015" width="80" height="80" fill="none"/>
    </clipPath>
  </defs>
  <g id="Group_131" data-name="Group 131" transform="translate(0 0)" clip-path="url(#clip-path)">
    <path id="Path_5203" data-name="Path 5203" d="M76.321.6H66.385a1.2,1.2,0,0,0-.8.3L31.3,30.959a1.271,1.271,0,0,1-1.108.29,34.162,34.162,0,0,0-6.036-.841,23.558,23.558,0,1,0,0,47.115c14.144,0,22.595-11.082,22.595-21.795,0-4.085-1.195-7.949-2.323-9.505a1.253,1.253,0,0,1-.108-.177,1.284,1.284,0,0,1,.574-1.721L57.01,38.269V27.523a1.283,1.283,0,0,1,1.282-1.282h8.974V14.7a1.283,1.283,0,0,1,1.282-1.282h8.974V1.8a1.2,1.2,0,0,0-1.2-1.2M21.569,64.7a8.149,8.149,0,1,1,8.149-8.149A8.159,8.159,0,0,1,21.569,64.7" transform="translate(0.938 0.938)" fill="#00d1cb"/>
    <path id="Path_5204" data-name="Path 5204" d="M76.321.6H66.385a1.2,1.2,0,0,0-.8.3L31.3,30.959a1.271,1.271,0,0,1-1.108.29,34.162,34.162,0,0,0-6.036-.841,23.558,23.558,0,1,0,0,47.115c14.144,0,22.595-11.082,22.595-21.795,0-4.085-1.195-7.949-2.323-9.505a1.253,1.253,0,0,1-.108-.177,1.284,1.284,0,0,1,.574-1.721L57.01,38.269V27.523a1.283,1.283,0,0,1,1.282-1.282h8.974V14.7a1.283,1.283,0,0,1,1.282-1.282h8.974V1.8A1.2,1.2,0,0,0,76.321.6ZM21.569,64.7a8.149,8.149,0,1,1,8.149-8.149A8.159,8.159,0,0,1,21.569,64.7Z" transform="translate(0.938 0.938)" fill="none" stroke="#454f63" stroke-linecap="round" stroke-linejoin="round" stroke-width="1.2"/>
    <line id="Line_18" data-name="Line 18" x1="29.018" y2="25.438" transform="translate(36.403 10.868)" fill="none" stroke="#454f63" stroke-linecap="round" stroke-width="1.2"/>
  </g>
</svg>
