<svg width="65" height="56" viewBox="0 0 65 56" fill="none" xmlns="http://www.w3.org/2000/svg">
<path d="M2.15991 54.7478H62.5869L32.3729 2.61084L2.15991 54.7478Z" fill="#D7001A"/>
<mask id="mask0_994_1398" style="mask-type:luminance" maskUnits="userSpaceOnUse" x="0" y="0" width="65" height="56">
<path d="M64.901 0H0V56H64.901V0Z" fill="white"/>
</mask>
<g mask="url(#mask0_994_1398)">
<path d="M1.53296 55.1172L32.45 1.76416L63.365 55.1172H1.53296Z" stroke="#454F63" stroke-width="1.2" stroke-miterlimit="10"/>
<path d="M32.5549 47.43C32.7531 47.4362 32.9504 47.4006 33.1339 47.3255C33.3174 47.2504 33.483 47.1374 33.6199 46.994C33.7583 46.8504 33.8665 46.6806 33.9385 46.4947C34.0104 46.3087 34.0446 46.1103 34.0389 45.911C34.0452 45.7129 34.0095 45.5158 33.9344 45.3325C33.8593 45.1491 33.7463 44.9837 33.6029 44.847C33.4597 44.7087 33.2903 44.6004 33.1047 44.5283C32.9191 44.4562 32.721 44.4217 32.5219 44.427C32.3238 44.4207 32.1265 44.4563 31.943 44.5315C31.7595 44.6066 31.5939 44.7195 31.4569 44.863C31.3187 45.0067 31.2104 45.1764 31.1383 45.3623C31.0662 45.5483 31.0318 45.7466 31.0369 45.946C31.0313 46.1443 31.0674 46.3415 31.1429 46.525C31.2183 46.7084 31.3315 46.874 31.4749 47.011C31.6183 47.149 31.7877 47.2572 31.9733 47.3291C32.1589 47.4011 32.356 47.4353 32.5549 47.43Z" fill="white" stroke="white"/>
<path d="M33.5111 22.2554H31.5681V40.6294H33.5111V22.2554Z" fill="white" stroke="white"/>
</g>
</svg>
