<svg id="Group_7507" data-name="Group 7507" xmlns="http://www.w3.org/2000/svg" xmlns:xlink="http://www.w3.org/1999/xlink" width="40.461" height="40.461" viewBox="0 0 40.461 40.461">
  <defs>
    <clipPath id="clip-path">
      <path id="Rectangle_1015" data-name="Rectangle 1015" d="M6.065,0l34.4,6.065L34.4,40.461,0,34.4Z" fill="none"/>
    </clipPath>
  </defs>
  <g id="Group_131" data-name="Group 131" clip-path="url(#clip-path)">
    <path id="Path_5203" data-name="Path 5203" d="M38.388,5.74l-4.272-.753a.525.525,0,0,0-.366.07L16.731,15.38a.555.555,0,0,1-.5.041c-.264-.106-.52-.2-.764-.293s-.475-.169-.691-.239-.416-.13-.6-.178-.342-.085-.48-.11a10.285,10.285,0,0,0-3.572,20.257,10.351,10.351,0,0,0,4.227-.1,9.4,9.4,0,0,0,3.432-1.6,9.645,9.645,0,0,0,2.444-2.668A9.383,9.383,0,0,0,21.5,27.2a9.963,9.963,0,0,0,.115-2.507,7.449,7.449,0,0,0-.151-1.018,3.5,3.5,0,0,0-.242-.737l-.01-.021L21.2,22.9l-.008-.021-.007-.021a.559.559,0,0,1,.377-.7l5.667-1.686.815-4.62a.559.559,0,0,1,.648-.454l3.859.68.875-4.961a.559.559,0,0,1,.648-.454l3.859.68.881-5a.525.525,0,0,0-.426-.608m-28.4,23.41a3.547,3.547,0,1,1,1.411-.036,3.537,3.537,0,0,1-1.411.036" transform="translate(0.777 0.777)" fill="#fff"/>
    <path id="Path_5204" data-name="Path 5204" d="M39.242,6.594,34.97,5.84a.526.526,0,0,0-.366.07L17.585,16.234a.555.555,0,0,1-.5.041c-.264-.106-.52-.2-.764-.293s-.475-.169-.691-.239-.416-.13-.6-.178-.342-.085-.48-.11a10.285,10.285,0,0,0-3.572,20.257,10.351,10.351,0,0,0,4.227-.1,9.4,9.4,0,0,0,3.432-1.6,9.645,9.645,0,0,0,2.444-2.668,9.383,9.383,0,0,0,1.264-3.29,9.963,9.963,0,0,0,.115-2.507,7.449,7.449,0,0,0-.151-1.018,3.5,3.5,0,0,0-.242-.737l-.01-.021-.009-.021-.008-.021-.007-.021a.559.559,0,0,1,.377-.7l5.667-1.686.815-4.62a.559.559,0,0,1,.648-.454l3.859.68.875-4.961a.559.559,0,0,1,.648-.454l3.859.68.881-5a.525.525,0,0,0-.426-.608ZM10.842,30a3.547,3.547,0,1,1,1.411-.036A3.537,3.537,0,0,1,10.842,30Z" transform="translate(-0.076 -0.076)" fill="none" stroke="#454f63" stroke-linecap="round" stroke-linejoin="round" stroke-width="1.2"/>
    <path id="Line_18" data-name="Line 18" d="M15.611,3.4l-14.4,8.737" transform="translate(17.758 6.229)" fill="none" stroke="#454f63" stroke-linecap="round" stroke-width="1.2"/>
  </g>
</svg>
