<svg id="Group_6770" data-name="Group 6770" xmlns="http://www.w3.org/2000/svg" xmlns:xlink="http://www.w3.org/1999/xlink" width="54.665" height="64.5" viewBox="0 0 54.665 64.5">
  <defs>
    <clipPath id="clip-path">
      <rect id="Rectangle_5451" data-name="Rectangle 5451" width="54.665" height="64.5" fill="none"/>
    </clipPath>
  </defs>
  <g id="Group_6774" data-name="Group 6774" clip-path="url(#clip-path)">
    <path id="Path_6105" data-name="Path 6105" d="M9.354,7.992A32.435,32.435,0,0,0,1.7,26.794c-.238,3.258-.166,6.539-.237,9.809a10.221,10.221,0,0,1-.065,1.519" fill="none" stroke="#454f63" stroke-linecap="round" stroke-linejoin="round" stroke-width="1.2"/>
    <path id="Path_6106" data-name="Path 6106" d="M45.5,7.992a32.435,32.435,0,0,1,7.659,18.8c.238,3.258.166,6.539.237,9.809a10.221,10.221,0,0,0,.065,1.519" fill="none" stroke="#454f63" stroke-linecap="round" stroke-linejoin="round" stroke-width="1.2"/>
    <path id="Path_6107" data-name="Path 6107" d="M54.165,57.509c-.455-.658-.76-1.106-1.071-1.55-1.456-2.08-3.008-4.1-4.346-6.255a16.966,16.966,0,0,1-2.553-9.515c.092-4.407.144-8.822-.02-13.224a23.376,23.376,0,0,0-7.433-16.747A16.5,16.5,0,0,0,27.665,5.349a16.189,16.189,0,0,0-11.62,4.763,23.434,23.434,0,0,0-7.573,17.2c-.122,4.348-.072,8.7-.01,13.055a16.536,16.536,0,0,1-2.383,9.052C4.726,51.628,3.15,53.7,1.671,55.837,1.329,56.33.983,56.82.5,57.509Z" fill="#00d1cb"/>
    <path id="Path_6108" data-name="Path 6108" d="M54.165,57.509c-.455-.658-.76-1.106-1.071-1.55-1.456-2.08-3.008-4.1-4.346-6.255a16.966,16.966,0,0,1-2.553-9.515c.092-4.407.144-8.822-.02-13.224a23.376,23.376,0,0,0-7.433-16.747A16.5,16.5,0,0,0,27.665,5.349a16.189,16.189,0,0,0-11.62,4.763,23.434,23.434,0,0,0-7.573,17.2c-.122,4.348-.072,8.7-.01,13.055a16.536,16.536,0,0,1-2.383,9.052C4.726,51.628,3.15,53.7,1.671,55.837,1.329,56.33.983,56.82.5,57.509Z" fill="none" stroke="#454f63" stroke-linecap="round" stroke-linejoin="round" stroke-width="1"/>
    <path id="Path_6109" data-name="Path 6109" d="M19.077,57.572c.393,3.737,4.311,7.146,8.616,6.917,3.922-.208,7.41-3.134,7.833-6.917Z" fill="#465063"/>
    <path id="Path_6110" data-name="Path 6110" d="M24.468,5.59h5.773c.815-2,.5-3.4-.92-4.44a3.462,3.462,0,0,0-4.235.15A3.336,3.336,0,0,0,24.468,5.59Z" fill="none" stroke="#455064" stroke-linecap="round" stroke-linejoin="round" stroke-width="1"/>
  </g>
</svg>
