<svg xmlns="http://www.w3.org/2000/svg" xmlns:xlink="http://www.w3.org/1999/xlink" width="60.903" height="64" viewBox="0 0 60.903 64">
  <defs>
    <clipPath id="clip-path">
      <rect id="Rectangle_5343" data-name="Rectangle 5343" width="60.903" height="64" fill="none"/>
    </clipPath>
  </defs>
  <g id="Group_5777" data-name="Group 5777" transform="translate(0 0)">
    <g id="Group_5777-2" data-name="Group 5777" transform="translate(0 0)" clip-path="url(#clip-path)">
      <path id="Path_5900" data-name="Path 5900" d="M60.333,27.8c-1.133.91-29.293,23.528-29.866,23.99.366.287-4.876-3.925-29.866-23.99C.65,27.748,29.249,1.054,29.187,1.1a1.874,1.874,0,0,1,2.559,0C31.27.657,39.081,7.963,60.333,27.8" transform="translate(-0.015 -0.015)" fill="#00d1cb"/>
      <path id="Path_5901" data-name="Path 5901" d="M60.333,27.8c-1.133.91-29.293,23.528-29.866,23.99.366.287-4.876-3.925-29.866-23.99C.65,27.748,29.249,1.054,29.187,1.1a1.874,1.874,0,0,1,2.559,0C31.27.657,39.081,7.963,60.333,27.8Z" transform="translate(-0.015 -0.015)" fill="none" stroke="#454f63" stroke-linecap="round" stroke-linejoin="round" stroke-width="1.2"/>
      <path id="Path_5902" data-name="Path 5902" d="M60.332,28.48V61.154a2.962,2.962,0,0,1-.841,2.081,2.843,2.843,0,0,1-2.035.872H3.476a2.843,2.843,0,0,1-2.035-.872A2.942,2.942,0,0,1,.6,61.154V28.48l19.423,15.6L30.466,52.47l10.443-8.387Z" transform="translate(-0.015 -0.706)" fill="#00d1cb"/>
      <path id="Path_5903" data-name="Path 5903" d="M60.332,28.48V61.154a2.962,2.962,0,0,1-.841,2.081,2.843,2.843,0,0,1-2.035.872H3.476a2.843,2.843,0,0,1-2.035-.872A2.942,2.942,0,0,1,.6,61.154V28.48l19.423,15.6L30.466,52.47l10.443-8.387Z" transform="translate(-0.015 -0.706)" fill="none" stroke="#454f63" stroke-linecap="round" stroke-linejoin="round" stroke-width="1.2"/>
      <path id="Path_5904" data-name="Path 5904" d="M35.286,39.789H25.7a2.857,2.857,0,0,0-2.048.873L1.482,63.529a2.839,2.839,0,0,0,2.033.873H57.459a2.82,2.82,0,0,0,2.033-.873C46.316,49.945,48.143,51.814,37.318,40.674a2.769,2.769,0,0,0-2.032-.885" transform="translate(-0.037 -0.987)" fill="#00d1cb"/>
      <path id="Path_5905" data-name="Path 5905" d="M35.286,39.789H25.7a2.857,2.857,0,0,0-2.048.873L1.482,63.529a2.839,2.839,0,0,0,2.033.873H57.459a2.82,2.82,0,0,0,2.033-.873C46.316,49.945,48.143,51.814,37.318,40.674A2.769,2.769,0,0,0,35.286,39.789Z" transform="translate(-0.037 -0.987)" fill="none" stroke="#454f63" stroke-linecap="round" stroke-linejoin="round" stroke-width="1.2"/>
      <path id="Path_5906" data-name="Path 5906" d="M52.76.671H11.478A2.087,2.087,0,0,0,9.392,2.758v20.73a2.087,2.087,0,0,0,2.086,2.087h28.09a.028.028,0,0,1,.017.007l7.924,7.173a1.043,1.043,0,0,0,1.743-.774v-6.4a.01.01,0,0,1,.01-.01h3.627a2.087,2.087,0,0,0,2.087-2.1L54.846,2.744A2.087,2.087,0,0,0,52.76.671" transform="translate(-0.233 -0.017)" fill="#fff"/>
      <path id="Path_5907" data-name="Path 5907" d="M52.76.671H11.478A2.087,2.087,0,0,0,9.392,2.758v20.73a2.087,2.087,0,0,0,2.086,2.087h28.09a.028.028,0,0,1,.017.007l7.924,7.173a1.043,1.043,0,0,0,1.743-.774v-6.4a.01.01,0,0,1,.01-.01h3.627a2.087,2.087,0,0,0,2.087-2.1L54.846,2.744A2.087,2.087,0,0,0,52.76.671Z" transform="translate(-0.233 -0.017)" fill="none" stroke="#454f63" stroke-linecap="round" stroke-linejoin="round" stroke-width="1.2"/>
      <line id="Line_569" data-name="Line 569" y2="5.959" transform="translate(19.568 10.128)" fill="#fff"/>
      <line id="Line_570" data-name="Line 570" y2="5.959" transform="translate(19.568 10.128)" fill="none" stroke="#454f63" stroke-linecap="round" stroke-linejoin="round" stroke-width="1.2"/>
      <line id="Line_571" data-name="Line 571" x1="4.823" y2="3.498" transform="translate(17.156 11.358)" fill="#fff"/>
      <line id="Line_572" data-name="Line 572" x1="4.823" y2="3.498" transform="translate(17.156 11.358)" fill="none" stroke="#454f63" stroke-linecap="round" stroke-linejoin="round" stroke-width="1.2"/>
      <line id="Line_573" data-name="Line 573" x2="4.823" y2="3.498" transform="translate(17.156 11.358)" fill="#fff"/>
      <line id="Line_574" data-name="Line 574" x2="4.823" y2="3.498" transform="translate(17.156 11.358)" fill="none" stroke="#454f63" stroke-linecap="round" stroke-linejoin="round" stroke-width="1.2"/>
      <line id="Line_575" data-name="Line 575" y2="5.959" transform="translate(27.827 10.128)" fill="#fff"/>
      <line id="Line_576" data-name="Line 576" y2="5.959" transform="translate(27.827 10.128)" fill="none" stroke="#454f63" stroke-linecap="round" stroke-linejoin="round" stroke-width="1.2"/>
      <line id="Line_577" data-name="Line 577" x1="4.823" y2="3.498" transform="translate(25.416 11.358)" fill="#fff"/>
      <line id="Line_578" data-name="Line 578" x1="4.823" y2="3.498" transform="translate(25.416 11.358)" fill="none" stroke="#454f63" stroke-linecap="round" stroke-linejoin="round" stroke-width="1.2"/>
      <line id="Line_579" data-name="Line 579" x2="4.823" y2="3.498" transform="translate(25.416 11.358)" fill="#fff"/>
      <line id="Line_580" data-name="Line 580" x2="4.823" y2="3.498" transform="translate(25.416 11.358)" fill="none" stroke="#454f63" stroke-linecap="round" stroke-linejoin="round" stroke-width="1.2"/>
      <line id="Line_581" data-name="Line 581" y2="5.959" transform="translate(36.087 10.128)" fill="#fff"/>
      <line id="Line_582" data-name="Line 582" y2="5.959" transform="translate(36.087 10.128)" fill="none" stroke="#454f63" stroke-linecap="round" stroke-linejoin="round" stroke-width="1.2"/>
      <line id="Line_583" data-name="Line 583" x1="4.823" y2="3.498" transform="translate(33.675 11.358)" fill="#fff"/>
      <line id="Line_584" data-name="Line 584" x1="4.823" y2="3.498" transform="translate(33.675 11.358)" fill="none" stroke="#454f63" stroke-linecap="round" stroke-linejoin="round" stroke-width="1.2"/>
      <line id="Line_585" data-name="Line 585" x2="4.823" y2="3.498" transform="translate(33.675 11.358)" fill="#fff"/>
      <line id="Line_586" data-name="Line 586" x2="4.823" y2="3.498" transform="translate(33.675 11.358)" fill="none" stroke="#454f63" stroke-linecap="round" stroke-linejoin="round" stroke-width="1.2"/>
      <line id="Line_587" data-name="Line 587" y2="5.959" transform="translate(44.347 10.128)" fill="#fff"/>
      <line id="Line_588" data-name="Line 588" y2="5.959" transform="translate(44.347 10.128)" fill="none" stroke="#454f63" stroke-linecap="round" stroke-linejoin="round" stroke-width="1.2"/>
      <line id="Line_589" data-name="Line 589" x1="4.823" y2="3.498" transform="translate(41.935 11.358)" fill="#fff"/>
      <line id="Line_590" data-name="Line 590" x1="4.823" y2="3.498" transform="translate(41.935 11.358)" fill="none" stroke="#454f63" stroke-linecap="round" stroke-linejoin="round" stroke-width="1.2"/>
      <line id="Line_591" data-name="Line 591" x2="4.823" y2="3.498" transform="translate(41.935 11.358)" fill="#fff"/>
      <line id="Line_592" data-name="Line 592" x2="4.823" y2="3.498" transform="translate(41.935 11.358)" fill="none" stroke="#454f63" stroke-linecap="round" stroke-linejoin="round" stroke-width="1.2"/>
    </g>
  </g>
</svg>
