<svg xmlns="http://www.w3.org/2000/svg" width="633.383" height="446.514" viewBox="0 0 633.383 446.514">
  <g id="Group_6316" data-name="Group 6316" transform="translate(1739.652 446.514) rotate(180)">
    <g id="Group_1582" data-name="Group 1582" transform="matrix(0.788, -0.616, 0.616, 0.788, 1106.27, 392.158)" opacity="0.66">
      <path id="Path_5089" data-name="Path 5089" d="M88.819,68.188H7.338a34.495,34.495,0,0,0,27.152-33.7V34.15A34.48,34.48,0,0,0,0,0H96.164a34.488,34.488,0,0,0-7.346,68.188" transform="translate(130.64 68.974) rotate(180)" fill="#7ad0ee"/>
      <path id="Path_5090" data-name="Path 5090" d="M34.434,68.974a34.51,34.51,0,0,1-7.346-.787h.066a34.438,34.438,0,1,1,7.28.787" transform="translate(68.911 68.974) rotate(180)" fill="rgba(69,79,99,0.1)"/>
      <path id="Path_5091" data-name="Path 5091" d="M27.22,68.188h-.066A34.488,34.488,0,0,1,34.5,0h.031a34.488,34.488,0,0,0-7.31,68.188" transform="translate(68.983 68.974) rotate(180)" fill="#00b5ee"/>
      <path id="Path_5092" data-name="Path 5092" d="M314.711,68.974H34.495A34.485,34.485,0,0,1,29.742.332L314.716,0a34.481,34.481,0,0,1,34.49,34.15v.335a34.474,34.474,0,0,1-34.495,34.49" transform="translate(445.358 68.974) rotate(180)" fill="rgba(69,79,99,0.1)"/>
      <path id="Path_5093" data-name="Path 5093" d="M34.49,34.15A34.481,34.481,0,0,0,0,0,34.48,34.48,0,0,1,34.49,34.15M7.338,68.188a34.495,34.495,0,0,0,27.152-33.7,34.495,34.495,0,0,1-27.152,33.7" transform="translate(130.64 68.974) rotate(180)" fill="#00b5ee"/>
    </g>
    <g id="Group_1584" data-name="Group 1584" transform="matrix(0.788, -0.616, 0.616, 0.788, 1130.612, 332.381)" opacity="0.66">
      <path id="Path_5089-2" data-name="Path 5089" d="M12.2,9.367H1.008a4.739,4.739,0,0,0,3.73-4.63V4.691A4.737,4.737,0,0,0,0,0H13.21A4.738,4.738,0,0,0,12.2,9.367" transform="translate(17.944 9.475) rotate(180)" fill="#7ad0ee"/>
      <path id="Path_5090-2" data-name="Path 5090" d="M4.73,9.475a4.741,4.741,0,0,1-1.009-.108H3.73a4.731,4.731,0,1,1,1,.108" transform="translate(9.466 9.475) rotate(180)" fill="#454f63"/>
      <path id="Path_5091-2" data-name="Path 5091" d="M3.739,9.367H3.73A4.738,4.738,0,0,1,4.739,0h0a4.738,4.738,0,0,0-1,9.367" transform="translate(9.472 9.475) rotate(180)" fill="#00b5ee"/>
      <path id="Path_5092-2" data-name="Path 5092" d="M163.394,9.475H4.739A4.737,4.737,0,0,1,4.086.046L163.394,0a4.737,4.737,0,0,1,4.738,4.691v.046a4.736,4.736,0,0,1-4.739,4.738" transform="translate(181.34 9.475) rotate(180)" fill="#454f63"/>
      <path id="Path_5093-2" data-name="Path 5093" d="M4.738,4.691A4.737,4.737,0,0,0,0,0,4.737,4.737,0,0,1,4.738,4.691M1.008,9.367a4.739,4.739,0,0,0,3.73-4.63,4.739,4.739,0,0,1-3.73,4.63" transform="translate(17.944 9.475) rotate(180)" fill="#00b5ee"/>
    </g>
    <g id="Group_1588" data-name="Group 1588" transform="matrix(0.788, -0.616, 0.616, 0.788, 1204.976, 372.645)" opacity="0.4">
      <path id="Path_5089-3" data-name="Path 5089" d="M120.711,92.672H9.973a46.881,46.881,0,0,0,36.9-45.805v-.455A46.861,46.861,0,0,0,0,0H130.694a46.872,46.872,0,0,0-9.983,92.672" transform="translate(177.548 93.741) rotate(180)" fill="#7ad0ee"/>
      <path id="Path_5090-3" data-name="Path 5090" d="M46.8,93.741a46.9,46.9,0,0,1-9.983-1.069h.09A46.8,46.8,0,1,1,46.8,93.741" transform="translate(93.655 93.741) rotate(180)" fill="#1d285a"/>
      <path id="Path_5091-3" data-name="Path 5091" d="M36.994,92.672H36.9A46.872,46.872,0,0,1,46.888,0h.041a46.872,46.872,0,0,0-9.935,92.672" transform="translate(93.755 93.741) rotate(180)" fill="#00b5ee"/>
      <path id="Path_5092-3" data-name="Path 5092" d="M427.715,93.741H46.881A46.867,46.867,0,0,1,40.422.452L427.721,0A46.863,46.863,0,0,1,474.6,46.412v.455a46.853,46.853,0,0,1-46.881,46.874" transform="translate(605.275 93.741) rotate(180)" fill="#1d285a"/>
      <path id="Path_5093-3" data-name="Path 5093" d="M46.874,46.412A46.863,46.863,0,0,0,0,0,46.861,46.861,0,0,1,46.874,46.412m-36.9,46.26a46.881,46.881,0,0,0,36.9-45.805,46.881,46.881,0,0,1-36.9,45.805" transform="translate(177.548 93.741) rotate(180)" fill="#00b5ee"/>
    </g>
  </g>
</svg>
