<svg xmlns="http://www.w3.org/2000/svg" xmlns:xlink="http://www.w3.org/1999/xlink" width="160" height="21.427" viewBox="0 0 160 21.427">
  <defs>
    <clipPath id="clip-path">
      <rect id="Rectangle_5389" data-name="Rectangle 5389" width="160" height="21.427" fill="none"/>
    </clipPath>
  </defs>
  <g id="Group_6231" data-name="Group 6231" transform="translate(0 0)">
    <g id="Group_6238" data-name="Group 6238" transform="translate(0 0)" clip-path="url(#clip-path)">
      <path id="Path_5955" data-name="Path 5955" d="M56.383,25.2a1.071,1.071,0,1,0,1.071-1.072A1.07,1.07,0,0,0,56.383,25.2" transform="translate(-11.315 -4.842)" fill="#16bcef"/>
      <path id="Path_5956" data-name="Path 5956" d="M52.316,25.2a1.071,1.071,0,1,0,1.072-1.072A1.07,1.07,0,0,0,52.316,25.2" transform="translate(-10.499 -4.842)" fill="#16bcef"/>
      <rect id="Rectangle_5388" data-name="Rectangle 5388" width="4.288" height="2.141" transform="translate(0 0.013)" fill="#231f20"/>
      <path id="Path_5957" data-name="Path 5957" d="M8.853,2.155h5.355V0h-7.5V12.863a4.276,4.276,0,0,0,4.277,4.276h3.22V15H10.993a2.142,2.142,0,0,1-2.141-2.143h0Z" transform="translate(-1.347 -0.001)" fill="#231f20"/>
      <path id="Path_5958" data-name="Path 5958" d="M33.285,5.339a6.431,6.431,0,1,0,0,12.862H34.36V16.075H33.285a4.283,4.283,0,0,1,0-8.566v0h2.145V18.23h2.145V5.339Z" transform="translate(-5.389 -1.072)" fill="#231f20"/>
      <path id="Path_5959" data-name="Path 5959" d="M22.794,5.368A5.337,5.337,0,0,0,19.578,6.44v-1.1H17.433V18.2h2.145V10.615a3.217,3.217,0,0,1,5.221-2.4,7.506,7.506,0,0,1,1.281-1.717,5.336,5.336,0,0,0-3.285-1.126" transform="translate(-3.498 -1.072)" fill="#231f20"/>
      <path id="Path_5960" data-name="Path 5960" d="M45.9,5.339H41.608V18.23h2.145V7.512H45.9v0a4.283,4.283,0,0,1,4.287,4.261v6.447H52.33V11.77A6.431,6.431,0,0,0,45.9,5.339" transform="translate(-8.35 -1.072)" fill="#231f20"/>
      <path id="Path_5961" data-name="Path 5961" d="M62.787,5.339a6.431,6.431,0,0,0,0,12.862H63.86V16.075H62.787a4.283,4.283,0,0,1,0-8.566v0h2.145V18.23h0a2.136,2.136,0,0,1-2.134,2.122H59.553V22.5h3.241a4.282,4.282,0,0,0,4.282-4.27h0V5.339Z" transform="translate(-11.309 -1.072)" fill="#231f20"/>
      <path id="Path_5962" data-name="Path 5962" d="M90.649,11.806a6.431,6.431,0,1,1-6.431-6.431,6.43,6.43,0,0,1,6.431,6.431M84.219,7.517a4.289,4.289,0,1,0,4.288,4.288,4.288,4.288,0,0,0-4.288-4.288" transform="translate(-15.61 -1.079)" fill="#231f20"/>
      <path id="Path_5963" data-name="Path 5963" d="M74.569,2.179V12.9h0a2.136,2.136,0,0,0,2.135,2.122v2.148a4.282,4.282,0,0,1-4.282-4.27h0V.006h2.145Z" transform="translate(-14.534 -0.002)" fill="#231f20"/>
      <path id="Path_5964" data-name="Path 5964" d="M102.109,16.944V4.165h5.513a5.556,5.556,0,0,1,3.313.858,2.831,2.831,0,0,1,1.177,2.429,3.049,3.049,0,0,1-.484,1.752,3.016,3.016,0,0,1-1.315,1.077,4.47,4.47,0,0,1-1.816.365l.31-.438a5.4,5.4,0,0,1,2.109.374,3.021,3.021,0,0,1,1.378,1.113,3.236,3.236,0,0,1,.493,1.834,2.962,2.962,0,0,1-1.2,2.519,5.989,5.989,0,0,1-3.6.9Zm1.351-1.113h4.509a4.769,4.769,0,0,0,2.574-.576,2.021,2.021,0,0,0,.894-1.834,2,2,0,0,0-.894-1.816,4.769,4.769,0,0,0-2.574-.576h-4.655V9.916h4.217a4.165,4.165,0,0,0,2.382-.585,1.966,1.966,0,0,0,.849-1.734,1.964,1.964,0,0,0-.849-1.743,4.213,4.213,0,0,0-2.382-.575H103.46Z" transform="translate(-20.491 -0.836)" fill="#16bcef"/>
      <path id="Path_5965" data-name="Path 5965" d="M122.924,17.837a4.715,4.715,0,0,1-2.136-.456,3.226,3.226,0,0,1-1.414-1.369,4.684,4.684,0,0,1-.5-2.282V8.162h1.3v5.422a3.176,3.176,0,0,0,.758,2.308,2.831,2.831,0,0,0,2.126.776,3.529,3.529,0,0,0,1.743-.411,2.719,2.719,0,0,0,1.132-1.2,4.162,4.162,0,0,0,.392-1.879V8.162h1.3v9.584h-1.241V15.118l.2.474a3.548,3.548,0,0,1-1.415,1.652,4.16,4.16,0,0,1-2.236.593" transform="translate(-23.855 -1.638)" fill="#16bcef"/>
      <path id="Path_5966" data-name="Path 5966" d="M136.571,17.814a7.336,7.336,0,0,1-2.245-.338,4.806,4.806,0,0,1-1.661-.848l.584-1.023a5.535,5.535,0,0,0,1.5.759,5.772,5.772,0,0,0,1.917.319,3.481,3.481,0,0,0,1.972-.429,1.335,1.335,0,0,0,.6-1.141,1.058,1.058,0,0,0-.337-.83,2.226,2.226,0,0,0-.886-.456,11.132,11.132,0,0,0-1.223-.265q-.676-.109-1.341-.256a4.908,4.908,0,0,1-1.214-.429,2.37,2.37,0,0,1-.886-.775,2.292,2.292,0,0,1-.337-1.314,2.376,2.376,0,0,1,.438-1.406,2.888,2.888,0,0,1,1.287-.976,5.356,5.356,0,0,1,2.072-.356,7.232,7.232,0,0,1,1.862.247,5.1,5.1,0,0,1,1.533.647l-.566,1.041a4.356,4.356,0,0,0-1.368-.63,5.726,5.726,0,0,0-1.46-.192,3.255,3.255,0,0,0-1.908.447,1.36,1.36,0,0,0-.611,1.141,1.1,1.1,0,0,0,.337.858,2.316,2.316,0,0,0,.894.484,8.96,8.96,0,0,0,1.223.282q.665.11,1.332.265a6.044,6.044,0,0,1,1.223.42,2.244,2.244,0,0,1,.894.748,2.178,2.178,0,0,1,.338,1.269,2.325,2.325,0,0,1-.466,1.452,2.974,2.974,0,0,1-1.351.949,6.026,6.026,0,0,1-2.145.338" transform="translate(-26.623 -1.615)" fill="#16bcef"/>
      <path id="Path_5967" data-name="Path 5967" d="M146.06,5.049a.916.916,0,0,1-.675-.273.9.9,0,0,1-.274-.658.865.865,0,0,1,.274-.647.931.931,0,0,1,.675-.265.953.953,0,0,1,.676.256.838.838,0,0,1,.273.639.934.934,0,0,1-.265.675.912.912,0,0,1-.685.273M145.4,7.167h1.3V16.75h-1.3Z" transform="translate(-29.121 -0.644)" fill="#16bcef"/>
      <path id="Path_5968" data-name="Path 5968" d="M156.512,8.048a4.5,4.5,0,0,1,2.053.448,3.22,3.22,0,0,1,1.388,1.36,4.737,4.737,0,0,1,.5,2.3v5.567h-1.3v-5.44a3.155,3.155,0,0,0-.757-2.291,2.839,2.839,0,0,0-2.127-.776,3.67,3.67,0,0,0-1.779.412,2.8,2.8,0,0,0-1.169,1.186,3.947,3.947,0,0,0-.411,1.871v5.038h-1.3V8.139h1.242v2.628l-.2-.492a3.49,3.49,0,0,1,1.46-1.634,4.616,4.616,0,0,1,2.392-.593" transform="translate(-30.427 -1.615)" fill="#16bcef"/>
      <path id="Path_5969" data-name="Path 5969" d="M170.885,17.814a5.32,5.32,0,0,1-2.629-.63,4.574,4.574,0,0,1-1.77-1.734,4.958,4.958,0,0,1-.639-2.528,5.077,5.077,0,0,1,.611-2.519,4.518,4.518,0,0,1,1.679-1.726,4.952,4.952,0,0,1,4.8-.018,4.359,4.359,0,0,1,1.652,1.715,5.242,5.242,0,0,1,.6,2.547c0,.061,0,.125-.01.191s-.009.137-.009.21h-8.342v-.967h7.649l-.512.383a3.778,3.778,0,0,0-.447-1.853,3.294,3.294,0,0,0-1.214-1.269,3.392,3.392,0,0,0-1.77-.456,3.453,3.453,0,0,0-1.77.456,3.167,3.167,0,0,0-1.223,1.278,3.934,3.934,0,0,0-.438,1.88v.2a3.759,3.759,0,0,0,.484,1.926,3.371,3.371,0,0,0,1.351,1.3,4.123,4.123,0,0,0,1.981.466,4.269,4.269,0,0,0,1.634-.311,3.394,3.394,0,0,0,1.305-.95l.73.84a4.1,4.1,0,0,1-1.6,1.168,5.391,5.391,0,0,1-2.109.4" transform="translate(-33.282 -1.615)" fill="#16bcef"/>
      <path id="Path_5970" data-name="Path 5970" d="M183.089,17.814a7.336,7.336,0,0,1-2.245-.338,4.806,4.806,0,0,1-1.661-.848l.584-1.023a5.535,5.535,0,0,0,1.5.759,5.773,5.773,0,0,0,1.917.319,3.481,3.481,0,0,0,1.972-.429,1.335,1.335,0,0,0,.6-1.141,1.057,1.057,0,0,0-.337-.83,2.226,2.226,0,0,0-.886-.456,11.131,11.131,0,0,0-1.223-.265q-.676-.109-1.341-.256a4.908,4.908,0,0,1-1.214-.429,2.37,2.37,0,0,1-.886-.775,2.292,2.292,0,0,1-.337-1.314,2.376,2.376,0,0,1,.438-1.406,2.888,2.888,0,0,1,1.287-.976,5.357,5.357,0,0,1,2.072-.356,7.232,7.232,0,0,1,1.862.247,5.1,5.1,0,0,1,1.533.647l-.566,1.041a4.356,4.356,0,0,0-1.368-.63,5.726,5.726,0,0,0-1.46-.192,3.255,3.255,0,0,0-1.908.447,1.36,1.36,0,0,0-.611,1.141,1.1,1.1,0,0,0,.337.858,2.316,2.316,0,0,0,.894.484,8.96,8.96,0,0,0,1.223.282q.665.11,1.332.265a6.044,6.044,0,0,1,1.223.42,2.243,2.243,0,0,1,.894.748,2.178,2.178,0,0,1,.338,1.269,2.325,2.325,0,0,1-.466,1.452,2.974,2.974,0,0,1-1.351.949,6.026,6.026,0,0,1-2.145.338" transform="translate(-35.958 -1.615)" fill="#16bcef"/>
      <path id="Path_5971" data-name="Path 5971" d="M194.234,17.814a7.335,7.335,0,0,1-2.245-.338,4.805,4.805,0,0,1-1.661-.848l.584-1.023a5.535,5.535,0,0,0,1.5.759,5.773,5.773,0,0,0,1.917.319,3.481,3.481,0,0,0,1.972-.429,1.335,1.335,0,0,0,.6-1.141,1.057,1.057,0,0,0-.337-.83,2.226,2.226,0,0,0-.886-.456,11.132,11.132,0,0,0-1.223-.265q-.676-.109-1.341-.256a4.908,4.908,0,0,1-1.214-.429,2.37,2.37,0,0,1-.886-.775,2.292,2.292,0,0,1-.337-1.314,2.376,2.376,0,0,1,.438-1.406A2.888,2.888,0,0,1,192.4,8.4a5.357,5.357,0,0,1,2.072-.356,7.232,7.232,0,0,1,1.862.247,5.1,5.1,0,0,1,1.533.647L197.3,9.983a4.356,4.356,0,0,0-1.368-.63,5.726,5.726,0,0,0-1.46-.192,3.255,3.255,0,0,0-1.908.447,1.36,1.36,0,0,0-.611,1.141,1.1,1.1,0,0,0,.337.858,2.316,2.316,0,0,0,.894.484,8.961,8.961,0,0,0,1.223.282q.665.11,1.332.265a6.044,6.044,0,0,1,1.223.42,2.243,2.243,0,0,1,.894.748,2.178,2.178,0,0,1,.338,1.269,2.325,2.325,0,0,1-.466,1.452,2.974,2.974,0,0,1-1.351.949,6.026,6.026,0,0,1-2.145.338" transform="translate(-38.195 -1.615)" fill="#16bcef"/>
    </g>
  </g>
</svg>
