<svg xmlns="http://www.w3.org/2000/svg" width="138.917" height="40.685" viewBox="0 0 138.917 40.685">
  <g id="Group_105" data-name="Group 105" transform="translate(-29 -39.447)">
    <path id="Path_752" data-name="Path 752" d="M162.089,92.571a1.983,1.983,0,1,0,1.983-2.035,2.006,2.006,0,0,0-1.983,2.035" transform="translate(-49.656 -14.471)" fill="#15bef0"/>
    <path id="Path_753" data-name="Path 753" d="M151.4,92.571a1.983,1.983,0,1,0,1.984-2.035,2.006,2.006,0,0,0-1.984,2.035" transform="translate(-44.99 -14.471)" fill="#15bef0"/>
    <rect id="Rectangle_1009" data-name="Rectangle 1009" width="7.939" height="4.066" transform="translate(29 39.472)" fill="#fff"/>
    <path id="Path_754" data-name="Path 754" d="M35.582,31.25H45.5V27.159H31.617V51.577h0v0A8.019,8.019,0,0,0,39.536,59.7H45.5V55.645H39.544a4.017,4.017,0,0,1-3.964-4.068h0V31.25" transform="translate(7.314 12.288)" fill="#fff"/>
    <path id="Path_755" data-name="Path 755" d="M96.432,41.182a12.214,12.214,0,0,0,0,24.421h1.989V61.566H96.432a8.135,8.135,0,0,1,0-16.263v.005H100.4V65.657h3.971V41.182H96.432" transform="translate(-15.789 6.368)" fill="#fff"/>
    <path id="Path_756" data-name="Path 756" d="M69.7,41.236a9.72,9.72,0,0,0-5.955,2.036v-2.09H59.779V65.6h3.969V51.2A6.031,6.031,0,0,1,69.7,45.3a5.837,5.837,0,0,1,3.711,1.332,14.21,14.21,0,0,1,2.371-3.259A9.719,9.719,0,0,0,69.7,41.236" transform="translate(-4.983 6.368)" fill="#fff"/>
    <path id="Path_757" data-name="Path 757" d="M131.222,41.182h-7.943V65.657h3.971V45.308h3.972V45.3a8.031,8.031,0,0,1,7.936,8.09v12.24h3.971V53.392a12.061,12.061,0,0,0-11.906-12.21" transform="translate(-32.71 6.368)" fill="#fff"/>
    <path id="Path_758" data-name="Path 758" d="M173.921,41.182a12.214,12.214,0,0,0,0,24.421h1.988V61.566h-1.988a8.135,8.135,0,0,1,0-16.263v.005h3.971V65.657h-.005a4,4,0,0,1-3.951,4.029h-6v4.078h6a8.029,8.029,0,0,0,7.927-8.107h0V41.182h-7.944" transform="translate(-49.625 6.368)" fill="#fff"/>
    <path id="Path_759" data-name="Path 759" d="M242.122,53.486a11.909,11.909,0,1,1-11.9-12.21,12.06,12.06,0,0,1,11.9,12.21m-11.9-8.143a8.145,8.145,0,1,0,7.939,8.143A8.043,8.043,0,0,0,230.217,45.344Z" transform="translate(-74.205 6.328)" fill="#fff"/>
    <path id="Path_760" data-name="Path 760" d="M208.192,31.3V51.651h.005a4,4,0,0,0,3.951,4.028v4.079a8.029,8.029,0,0,1-7.927-8.107h0V27.176h3.971l0,4.127" transform="translate(-68.052 12.28)" fill="#fff"/>
  </g>
</svg>
