<svg xmlns="http://www.w3.org/2000/svg" xmlns:xlink="http://www.w3.org/1999/xlink" width="157.291" height="21.516" viewBox="0 0 157.291 21.516">
  <defs>
    <clipPath id="clip-path">
      <rect id="Rectangle_5391" data-name="Rectangle 5391" width="157.291" height="21.516" fill="none"/>
    </clipPath>
  </defs>
  <g id="Group_6239" data-name="Group 6239" transform="translate(0 0)">
    <g id="Group_6239-2" data-name="Group 6239" transform="translate(0 0)" clip-path="url(#clip-path)">
      <path id="Path_5972" data-name="Path 5972" d="M56.383,25.2a1.076,1.076,0,1,0,1.076-1.076A1.074,1.074,0,0,0,56.383,25.2" transform="translate(-11.128 -4.762)" fill="#16bcef"/>
      <path id="Path_5973" data-name="Path 5973" d="M52.316,25.2a1.076,1.076,0,1,0,1.076-1.076A1.074,1.074,0,0,0,52.316,25.2" transform="translate(-10.325 -4.762)" fill="#16bcef"/>
      <rect id="Rectangle_5390" data-name="Rectangle 5390" width="4.306" height="2.15" transform="translate(0 0.013)" fill="#231f20"/>
      <path id="Path_5974" data-name="Path 5974" d="M8.862,2.164H14.24V0H6.711V12.916a4.293,4.293,0,0,0,4.295,4.293H14.24V15.066H11.011a2.151,2.151,0,0,1-2.15-2.152h0Z" transform="translate(-1.325 -0.001)" fill="#231f20"/>
      <path id="Path_5975" data-name="Path 5975" d="M33.312,5.339a6.458,6.458,0,1,0,0,12.915h1.079V16.12H33.312a4.3,4.3,0,0,1,0-8.6v0h2.154V18.283h2.154V5.339Z" transform="translate(-5.3 -1.054)" fill="#231f20"/>
      <path id="Path_5976" data-name="Path 5976" d="M22.816,5.368a5.359,5.359,0,0,0-3.23,1.076V5.339H17.433V18.254h2.153V10.637a3.231,3.231,0,0,1,5.243-2.414A7.537,7.537,0,0,1,26.115,6.5a5.358,5.358,0,0,0-3.3-1.131" transform="translate(-3.441 -1.054)" fill="#231f20"/>
      <path id="Path_5977" data-name="Path 5977" d="M45.917,5.339H41.608V18.283h2.154V7.521h2.154v0a4.3,4.3,0,0,1,4.3,4.279V18.27h2.153V11.8a6.458,6.458,0,0,0-6.458-6.458" transform="translate(-8.212 -1.054)" fill="#231f20"/>
      <path id="Path_5978" data-name="Path 5978" d="M62.813,5.339a6.458,6.458,0,0,0,0,12.915h1.078V16.12H62.813a4.3,4.3,0,0,1,0-8.6v0h2.153V18.283h0a2.145,2.145,0,0,1-2.143,2.131H59.567v2.157h3.255a4.3,4.3,0,0,0,4.3-4.288h0V5.339Z" transform="translate(-11.123 -1.054)" fill="#231f20"/>
      <path id="Path_5979" data-name="Path 5979" d="M90.7,11.832a6.457,6.457,0,1,1-6.457-6.457A6.457,6.457,0,0,1,90.7,11.832M84.245,7.526a4.307,4.307,0,1,0,4.306,4.306,4.306,4.306,0,0,0-4.306-4.306" transform="translate(-15.353 -1.061)" fill="#231f20"/>
      <path id="Path_5980" data-name="Path 5980" d="M74.578,2.188V12.95h0a2.144,2.144,0,0,0,2.144,2.131v2.157a4.3,4.3,0,0,1-4.3-4.288h0V.006h2.153Z" transform="translate(-14.294 -0.002)" fill="#231f20"/>
      <path id="Path_5981" data-name="Path 5981" d="M107.4,17.079a7.217,7.217,0,0,1-2.676-.485,6.262,6.262,0,0,1-3.528-3.438,6.6,6.6,0,0,1-.5-2.6,6.61,6.61,0,0,1,.5-2.6,6.221,6.221,0,0,1,1.411-2.071,6.418,6.418,0,0,1,2.135-1.365,7.206,7.206,0,0,1,2.677-.486,7.329,7.329,0,0,1,2.621.467,5.271,5.271,0,0,1,2.071,1.4l-.861.862a4.785,4.785,0,0,0-1.742-1.165,5.816,5.816,0,0,0-2.053-.357,5.754,5.754,0,0,0-2.145.394,5.118,5.118,0,0,0-1.722,1.119,5.251,5.251,0,0,0-1.145,1.686,5.316,5.316,0,0,0-.413,2.117,5.314,5.314,0,0,0,.413,2.117,5.237,5.237,0,0,0,1.145,1.686,5.1,5.1,0,0,0,1.722,1.118,5.738,5.738,0,0,0,2.145.394,5.662,5.662,0,0,0,2.053-.367,4.881,4.881,0,0,0,1.742-1.173l.861.861a5.333,5.333,0,0,1-2.071,1.411,7.216,7.216,0,0,1-2.64.477" transform="translate(-19.873 -0.795)" fill="#16bcef"/>
      <path id="Path_5982" data-name="Path 5982" d="M121.344,17.854a4.954,4.954,0,0,1-2.5-.632,4.638,4.638,0,0,1-1.751-1.741,4.975,4.975,0,0,1-.642-2.539,4.962,4.962,0,0,1,.642-2.548,4.614,4.614,0,0,1,1.742-1.723,5,5,0,0,1,2.511-.623,5.09,5.09,0,0,1,2.539.623,4.542,4.542,0,0,1,1.742,1.723,5.022,5.022,0,0,1,.632,2.548,5.035,5.035,0,0,1-.632,2.539,4.567,4.567,0,0,1-1.751,1.741,5.039,5.039,0,0,1-2.529.632m0-1.154a3.62,3.62,0,0,0,1.852-.468,3.355,3.355,0,0,0,1.274-1.32,4.034,4.034,0,0,0,.467-1.97,4.018,4.018,0,0,0-.467-1.979A3.369,3.369,0,0,0,123.2,9.652a3.831,3.831,0,0,0-3.666,0,3.424,3.424,0,0,0-1.283,1.311,3.953,3.953,0,0,0-.477,1.979,3.968,3.968,0,0,0,.477,1.97,3.409,3.409,0,0,0,1.283,1.32,3.548,3.548,0,0,0,1.815.468" transform="translate(-22.983 -1.589)" fill="#16bcef"/>
      <path id="Path_5983" data-name="Path 5983" d="M136.892,8.048a4.514,4.514,0,0,1,2.062.449,3.233,3.233,0,0,1,1.393,1.365,4.756,4.756,0,0,1,.5,2.31v5.59h-1.3V12.3a3.168,3.168,0,0,0-.76-2.3,2.85,2.85,0,0,0-2.136-.779,3.685,3.685,0,0,0-1.787.413,2.814,2.814,0,0,0-1.173,1.191,3.964,3.964,0,0,0-.413,1.879v5.059h-1.3V8.139h1.247v2.639l-.2-.494a3.505,3.505,0,0,1,1.466-1.641,4.635,4.635,0,0,1,2.4-.6" transform="translate(-26.048 -1.589)" fill="#16bcef"/>
      <path id="Path_5984" data-name="Path 5984" d="M152.33,8.048a4.514,4.514,0,0,1,2.062.449,3.233,3.233,0,0,1,1.393,1.365,4.757,4.757,0,0,1,.5,2.31v5.59h-1.3V12.3a3.168,3.168,0,0,0-.76-2.3,2.85,2.85,0,0,0-2.136-.779,3.686,3.686,0,0,0-1.787.413,2.814,2.814,0,0,0-1.173,1.191,3.964,3.964,0,0,0-.413,1.879v5.059h-1.3V8.139h1.247v2.639l-.2-.494a3.505,3.505,0,0,1,1.466-1.641,4.635,4.635,0,0,1,2.4-.6" transform="translate(-29.095 -1.589)" fill="#16bcef"/>
      <path id="Path_5985" data-name="Path 5985" d="M166.7,17.855a5.342,5.342,0,0,1-2.64-.632,4.593,4.593,0,0,1-1.778-1.741,4.979,4.979,0,0,1-.641-2.539,5.1,5.1,0,0,1,.614-2.529,4.537,4.537,0,0,1,1.686-1.733,4.973,4.973,0,0,1,4.821-.018,4.378,4.378,0,0,1,1.659,1.722,5.264,5.264,0,0,1,.605,2.558c0,.061,0,.125-.01.192s-.009.138-.009.211h-8.377v-.971h7.68l-.514.384a3.794,3.794,0,0,0-.449-1.861,3.307,3.307,0,0,0-1.219-1.274,3.406,3.406,0,0,0-1.778-.458,3.467,3.467,0,0,0-1.778.458,3.18,3.18,0,0,0-1.228,1.283,3.951,3.951,0,0,0-.44,1.888V13a3.774,3.774,0,0,0,.486,1.934,3.385,3.385,0,0,0,1.356,1.3,4.141,4.141,0,0,0,1.989.468,4.286,4.286,0,0,0,1.641-.312,3.408,3.408,0,0,0,1.311-.954l.733.844a4.118,4.118,0,0,1-1.6,1.173,5.413,5.413,0,0,1-2.117.4" transform="translate(-31.903 -1.589)" fill="#16bcef"/>
      <path id="Path_5986" data-name="Path 5986" d="M180.406,17.855a5.139,5.139,0,0,1-2.557-.632,4.614,4.614,0,0,1-1.769-1.741,4.987,4.987,0,0,1-.641-2.539,4.973,4.973,0,0,1,.641-2.548,4.567,4.567,0,0,1,1.769-1.722,5.194,5.194,0,0,1,2.557-.624,5.044,5.044,0,0,1,2.218.477,3.6,3.6,0,0,1,1.559,1.429l-.972.66a3.051,3.051,0,0,0-1.228-1.081,3.865,3.865,0,0,0-3.446.119,3.405,3.405,0,0,0-1.3,1.311,3.956,3.956,0,0,0-.476,1.98,3.953,3.953,0,0,0,.476,1.979,3.394,3.394,0,0,0,1.3,1.311,3.859,3.859,0,0,0,3.446.119,3.1,3.1,0,0,0,1.228-1.063l.972.66a3.7,3.7,0,0,1-1.559,1.421,4.971,4.971,0,0,1-2.218.486" transform="translate(-34.626 -1.589)" fill="#16bcef"/>
      <path id="Path_5987" data-name="Path 5987" d="M187.77,7.639h5.957V8.72H187.77Zm4.546,9.715a2.831,2.831,0,0,1-2.09-.733,2.805,2.805,0,0,1-.733-2.072V5.513h1.3v8.963a1.828,1.828,0,0,0,.431,1.3,1.616,1.616,0,0,0,1.238.458,2.1,2.1,0,0,0,1.429-.494l.458.935a2.407,2.407,0,0,1-.925.513,3.755,3.755,0,0,1-1.109.165" transform="translate(-37.059 -1.088)" fill="#16bcef"/>
    </g>
  </g>
</svg>
