<svg xmlns="http://www.w3.org/2000/svg" width="200" height="58.574" viewBox="0 0 200 58.574">
  <g id="Group_105" data-name="Group 105" transform="translate(-29 -39.447)">
    <path id="Path_752" data-name="Path 752" d="M162.089,93.466a2.856,2.856,0,1,0,2.855-2.93,2.888,2.888,0,0,0-2.855,2.93" transform="translate(-12.97 1.631)" fill="#fff"/>
    <path id="Path_753" data-name="Path 753" d="M151.4,93.466a2.856,2.856,0,1,0,2.857-2.93,2.888,2.888,0,0,0-2.857,2.93" transform="translate(-10.95 1.631)" fill="#fff"/>
    <rect id="Rectangle_1009" data-name="Rectangle 1009" width="11.43" height="5.854" transform="translate(29 39.482)" fill="#fff"/>
    <path id="Path_754" data-name="Path 754" d="M37.326,33.048H51.6V27.159H31.617V62.314h0v0a11.546,11.546,0,0,0,11.4,11.688H51.6V68.171H43.03a5.784,5.784,0,0,1-5.707-5.857h0V33.048" transform="translate(11.681 12.288)" fill="#fff"/>
    <path id="Path_755" data-name="Path 755" d="M101.667,41.182a17.585,17.585,0,0,0,0,35.159h2.863V70.529h-2.863a11.713,11.713,0,0,1,0-23.415v.007h5.718v29.3H113.1V41.182H101.667" transform="translate(1.684 9.931)" fill="#fff"/>
    <path id="Path_756" data-name="Path 756" d="M74.067,41.26a13.994,13.994,0,0,0-8.573,2.931v-3.01H59.779V76.341h5.715V55.605a8.682,8.682,0,0,1,8.573-8.491,8.4,8.4,0,0,1,5.343,1.917,20.458,20.458,0,0,1,3.413-4.692,13.992,13.992,0,0,0-8.756-3.079" transform="translate(6.359 9.931)" fill="#fff"/>
    <path id="Path_757" data-name="Path 757" d="M134.714,41.182H123.279V76.419H129v-29.3h5.718v-.007A11.562,11.562,0,0,1,146.14,58.761V76.383h5.716V58.761a17.365,17.365,0,0,0-17.142-17.579" transform="translate(-5.637 9.931)" fill="#fff"/>
    <path id="Path_758" data-name="Path 758" d="M179.156,41.182a17.585,17.585,0,0,0,0,35.159h2.861V70.529h-2.861a11.713,11.713,0,0,1,0-23.415v.007h5.716v29.3h-.007a5.764,5.764,0,0,1-5.689,5.8h-8.637V88.09h8.637a11.56,11.56,0,0,0,11.412-11.672h0V41.182H179.156" transform="translate(-12.957 9.931)" fill="#fff"/>
    <path id="Path_759" data-name="Path 759" d="M252.591,58.855a17.145,17.145,0,1,1-17.139-17.579,17.363,17.363,0,0,1,17.139,17.579M235.451,47.132a11.727,11.727,0,1,0,11.43,11.723A11.579,11.579,0,0,0,235.451,47.132Z" transform="translate(-23.591 9.915)" fill="#fff"/>
    <path id="Path_760" data-name="Path 760" d="M209.939,33.117v29.3h.007a5.763,5.763,0,0,0,5.689,5.8v5.872a11.56,11.56,0,0,1-11.413-11.672h0V27.176h5.717l0,5.941" transform="translate(-20.929 12.284)" fill="#fff"/>
  </g>
</svg>
