<svg xmlns="http://www.w3.org/2000/svg" xmlns:xlink="http://www.w3.org/1999/xlink" width="80" height="80" viewBox="0 0 80 80">
  <defs>
    <clipPath id="clip-path">
      <rect id="Rectangle_1071" data-name="Rectangle 1071" width="80" height="80" fill="none"/>
    </clipPath>
  </defs>
  <g id="Group_284" data-name="Group 284" transform="translate(0 0)">
    <g id="Group_284-2" data-name="Group 284" transform="translate(0 0)" clip-path="url(#clip-path)">
      <path id="Path_5214" data-name="Path 5214" d="M78.392,39.5A38.9,38.9,0,1,1,39.5.6a38.9,38.9,0,0,1,38.9,38.9" transform="translate(0.504 0.505)" fill="#00d1cb"/>
      <circle id="Ellipse_7" data-name="Ellipse 7" cx="38.896" cy="38.896" r="38.896" transform="translate(1.104 1.104)" fill="none" stroke="#454f63" stroke-linecap="round" stroke-linejoin="round" stroke-width="1.2"/>
      <path id="Path_5215" data-name="Path 5215" d="M33.821,72.017c-9.741,0-18.944-2.766-25.351-9.218L7.354,61.677l1.191-1.043c2.641-2.311,6.091-3.668,9.135-4.866C21.169,54.4,24.2,53.206,25.1,51.119a44.661,44.661,0,0,0,.12-4.5l0-.7a14.932,14.932,0,0,1-3.283-6.846c-1.045-.539-2.344-1.87-2.736-5.129a4.864,4.864,0,0,1,.966-3.732c-1.816-7.54-1.283-13.276,1.588-17.061C24.18,9.958,28.18,8.287,33.648,8.186c3.611,0,6.3.966,7.7,2.738A8.383,8.383,0,0,1,47.1,14.776c3.044,4.9,1.262,12.541.4,15.482a4.876,4.876,0,0,1,.927,3.686c-.39,3.259-1.689,4.588-2.736,5.129a15.1,15.1,0,0,1-3.2,6.835l0,.714a44.446,44.446,0,0,0,.116,4.5c.909,2.089,3.923,3.278,7.4,4.65,3.057,1.207,6.524,2.576,9.163,4.923l1.123,1L59.279,62.8c-2.216,2.435-15.052,9.216-25.458,9.216" transform="translate(6.179 6.879)" fill="#fff"/>
      <path id="Path_5216" data-name="Path 5216" d="M33.821,72.017c-9.741,0-18.944-2.766-25.351-9.218L7.354,61.677l1.191-1.043c2.641-2.311,6.091-3.668,9.135-4.866C21.169,54.4,24.2,53.206,25.1,51.119a44.661,44.661,0,0,0,.12-4.5l0-.7a14.932,14.932,0,0,1-3.283-6.846c-1.045-.539-2.344-1.87-2.736-5.129a4.864,4.864,0,0,1,.966-3.732c-1.816-7.54-1.283-13.276,1.588-17.061C24.18,9.958,28.18,8.287,33.648,8.186c3.611,0,6.3.966,7.7,2.738A8.383,8.383,0,0,1,47.1,14.776c3.044,4.9,1.262,12.541.4,15.482a4.876,4.876,0,0,1,.927,3.686c-.39,3.259-1.689,4.588-2.736,5.129a15.1,15.1,0,0,1-3.2,6.835l0,.714a44.446,44.446,0,0,0,.116,4.5c.909,2.089,3.923,3.278,7.4,4.65,3.057,1.207,6.524,2.576,9.163,4.923l1.123,1L59.279,62.8C57.063,65.236,44.227,72.017,33.821,72.017Z" transform="translate(6.179 6.879)" fill="none" stroke="#454f63" stroke-linecap="round" stroke-linejoin="round" stroke-width="1"/>
    </g>
  </g>
</svg>
